# xmcd
#
# Track frame offsets:
#	150
#	11156
#	36291
#	46757
#	65100
#	85595
#	105388
#	122051
#	145603
#	170288
#	189707
#	214099
#	231230
#	256109
#	276205
#	280941
#
# Disc length: 3902 seconds
#
# Revision: 4
# Processed by: cddbd v1.5.2PL0 Copyright (c) Steve Scherf et al.
# Submitted via: EZCDAudioConverter 1.3.4.1
#
DISCID=df0f3c10
DTITLE=Fleetwood Mac - Rumours 3/3
DYEAR=2013
DGENRE=
TTITLE0=Second Hand News [Early Take]
TTITLE1=Dreams [Take 2]
TTITLE2=Never Going Back Again [Acoustic Duet]
TTITLE3=Go Your Own Way [Early Take]
TTITLE4=Songbird [Demo]
TTITLE5=Songbird [Instrumental, Take 10]
TTITLE6=I Don't Want To Know [Early Take]
TTITLE7=Keep Me There [Instrumental]
TTITLE8=The Chain [Demo]
TTITLE9=Keep Me There [With Vocal]
TTITLE10=Gold Dust Woman [Early Take]
TTITLE11=Oh Daddy [Early Take]
TTITLE12=Silver Springs [Early Take]
TTITLE13=Planets Of The Universe [Demo]
TTITLE14=Doesn't Anything Last [Acoustic Duet]
TTITLE15=Never Going Back Again [Instrumental]
EXTD=
EXTT0=
EXTT1=
EXTT2=
EXTT3=
EXTT4=
EXTT5=
EXTT6=
EXTT7=
EXTT8=
EXTT9=
EXTT10=
EXTT11=
EXTT12=
EXTT13=
EXTT14=
EXTT15=
PLAYORDER=
